<svg width="160" height="36" viewBox="0 0 160 36" fill="none" xmlns="http://www.w3.org/2000/svg">
    <path d="M69.4241 11.5218C69.4241 15.2917 69.4434 19.1969 69.5593 22.8156C68.5645 20.1209 66.7745 15.4656 63.4842 6.88576L60.8861 0.0959473H53.6746V35.9252H59.6885V24.0969C59.6885 19.6122 59.6885 15.575 59.5887 12.0562C60.6833 15.0632 62.7437 20.5781 66.7874 31.3986L68.4776 35.9252H75.4348V0.0959473H69.4241V11.5218Z" fill="white"/>
    <path d="M89.9544 23.5786L92.5299 20.0372L99.3874 35.9219H106.692L96.947 14.4321L106.676 0.0959473H99.0847L98.9141 0.347064C97.1144 3.13188 94.6966 7.06283 92.5686 10.5237C91.5866 12.1335 90.6948 13.5822 89.9512 14.7766V0.0959473H83.4736V35.9348H89.9512" fill="white"/>
    <path d="M112.864 6.01973H124.107V15.3304H112.864V20.6586H124.107V30.1302H112.864V35.9252H130.571V0.0959473H112.864V6.01973Z" fill="white"/>
    <path d="M27.9222 35.9252H45.6292V30.1302H34.3933V20.6489H45.6227V15.3175H34.3933V6.01007H45.6227V0.0959473H27.9158L27.9222 35.9252Z" fill="white"/>
    <path d="M0 35.9253H10.9654C13.1313 35.9273 15.2427 35.2467 16.9996 33.9802C18.7565 32.7137 20.0696 30.9257 20.7523 28.8702C21.4349 26.8148 21.4524 24.5964 20.8023 22.5305C20.1521 20.4645 18.8674 18.656 17.1307 17.3619C18.8784 15.4689 19.8446 12.9844 19.835 10.4079C19.8299 7.67719 18.7429 5.05974 16.8119 3.1288C14.881 1.19787 12.2635 0.110819 9.53278 0.105713H0.00644027L0 35.9253ZM6.2747 6.02949H8.6088C9.89658 6.02949 11.2262 6.14217 12.0858 7.03074C12.5235 7.46029 12.8693 7.97429 13.1023 8.54155C13.3353 9.10881 13.4506 9.7175 13.4412 10.3307V10.4852C13.4412 11.766 12.9324 12.9943 12.0268 13.8999C11.1211 14.8056 9.89279 15.3144 8.61202 15.3144H6.2747V6.02949ZM14.8706 25.6971C14.8706 26.9849 14.3587 27.9056 13.4541 28.8103C12.5493 29.7162 11.3218 30.2257 10.0415 30.2268H6.2747V20.7005H10.0415C11.3222 20.7005 12.5505 21.2093 13.4562 22.1149C14.3618 23.0206 14.8706 24.2489 14.8706 25.5297V25.6971Z" fill="white"/>
    <path d="M138.594 35.9219H144.975V20.6424H148.919C150.153 20.6456 151.337 21.1361 152.212 22.0075C153.086 22.9071 153.575 24.1113 153.577 25.3654V35.9187H160V25.2237C160.002 23.8444 159.715 22.48 159.157 21.2189C158.598 19.9577 157.781 18.8279 156.758 17.9027C158.262 16.4866 159.306 14.6511 159.754 12.6343C160.201 10.6175 160.033 8.51268 159.269 6.59311C158.505 4.67355 157.182 3.02791 155.471 1.86987C153.761 0.711837 151.741 0.0948916 149.675 0.0991429H138.594V35.9219ZM153.564 10.4883C153.559 11.7675 153.049 12.9929 152.144 13.8974C151.24 14.802 150.014 15.3124 148.735 15.3175H144.988V5.95532H148.758C150.045 5.95532 151.475 6.34809 152.38 7.24309C153.284 8.1381 153.577 8.95584 153.577 10.4625L153.564 10.4883Z" fill="white"/>
</svg>
