<svg width="174" height="58" viewBox="0 0 174 58" fill="none" xmlns="http://www.w3.org/2000/svg">
<path d="M29.122 58C45.2056 58 58.244 45.0163 58.244 29C58.244 12.9837 45.2056 0 29.122 0C13.0384 0 0 12.9837 0 29C0 45.0163 13.0384 58 29.122 58Z" fill="#1C1F3E"/>
<path d="M18.5607 27.0495V18.7972L13.2016 15.6213C13.0787 15.5471 12.942 15.4983 12.7997 15.4778C12.6574 15.4573 12.5125 15.4655 12.3735 15.5019C12.2344 15.5384 12.1042 15.6023 11.9905 15.6899C11.8768 15.7774 11.7819 15.8869 11.7115 16.0118C11.6118 16.177 11.5576 16.3656 11.5547 16.5584V41.0809C11.5547 41.3709 11.6704 41.6489 11.8763 41.854C12.0822 42.059 12.3615 42.1742 12.6526 42.1742C12.8473 42.1784 13.0386 42.1239 13.2016 42.018L24.0243 35.8744C24.2767 35.7322 24.4623 35.4964 24.5407 35.2184C24.619 34.9404 24.5838 34.6428 24.4426 34.3906C24.3452 34.2154 24.2002 34.0711 24.0243 33.974L20.9135 32.2559C20.1956 31.8402 19.6003 31.2436 19.1873 30.5262C18.7743 29.8088 18.5582 28.9958 18.5607 28.1689V27.0495Z" fill="url(#paint0_linear)"/>
<path d="M37.6448 26.0313C38.2316 26.3501 38.7211 26.8206 39.0616 27.3934C39.402 27.9661 39.5809 28.6198 39.5793 29.2854V39.0475L44.8077 42.1193C44.9311 42.1952 45.0684 42.2459 45.2116 42.2687C45.3548 42.2914 45.5011 42.2857 45.6421 42.2518C45.7831 42.2179 45.9159 42.1565 46.0329 42.0712C46.15 41.986 46.2489 41.8784 46.3239 41.7549C46.4255 41.5444 46.4532 41.306 46.4023 41.078V16.5556C46.4094 16.412 46.3879 16.2684 46.3391 16.133C46.2903 15.9977 46.2152 15.8733 46.1181 15.7669C46.021 15.6605 45.9037 15.5742 45.7731 15.513C45.6424 15.4518 45.5009 15.4168 45.3567 15.4102C45.1846 15.3711 45.0059 15.3711 44.8338 15.4102L33.9066 21.7881C33.655 21.9444 33.4738 22.1914 33.4007 22.4776C33.3276 22.7638 33.3684 23.067 33.5144 23.324C33.6179 23.4787 33.7512 23.6114 33.9066 23.7145L37.6448 26.0313Z" fill="url(#paint1_linear)"/>
<path d="M21.8305 29.0007L29.0195 24.8615L44.9138 15.62C45.0372 15.5442 45.1744 15.4934 45.3176 15.4707C45.4609 15.4479 45.6072 15.4537 45.7482 15.4876C45.8891 15.5214 46.022 15.5828 46.139 15.6681C46.256 15.7534 46.3549 15.8609 46.43 15.9845C46.5331 16.1579 46.5873 16.3557 46.5868 16.5572V23.0132L36.1301 29.0007L29.0195 33.1138L13.3344 42.199C13.2115 42.2732 13.0748 42.322 12.9325 42.3425C12.7902 42.363 12.6453 42.3548 12.5063 42.3184C12.3672 42.2819 12.237 42.218 12.1233 42.1304C12.0096 42.0429 11.9147 41.9334 11.8443 41.8085C11.7446 41.6433 11.6905 41.4547 11.6875 41.2619V34.91L21.8305 29.0007Z" fill="url(#paint2_linear)"/>
<path d="M25.7497 22.8583L18.5607 18.7191L13.2016 15.6213C13.0787 15.5471 12.942 15.4983 12.7997 15.4778C12.6574 15.4573 12.5125 15.4655 12.3735 15.5019C12.2344 15.5384 12.1042 15.6023 11.9905 15.6899C11.8768 15.7774 11.7819 15.8869 11.7115 16.0118C11.6118 16.177 11.5576 16.3656 11.5547 16.5584V30.9803L15.2668 28.8457C16.2683 28.2699 17.4043 27.9668 18.5607 27.9668C19.7171 27.9668 20.8531 28.2699 21.8546 28.8457L44.9117 42.0961C45.0351 42.172 45.1723 42.2228 45.3156 42.2455C45.4588 42.2683 45.6051 42.2625 45.7461 42.2286C45.887 42.1947 46.0199 42.1334 46.1369 42.0481C46.2539 41.9628 46.3528 41.8553 46.4279 41.7317C46.5349 41.56 46.5894 41.361 46.5847 41.159V34.9112L25.7497 22.8583Z" fill="url(#paint3_linear)"/>
<path d="M32.3897 34.9893L39.5526 39.0504L44.781 42.1222C44.9044 42.198 45.0416 42.2488 45.1848 42.2716C45.3281 42.2943 45.4744 42.2885 45.6153 42.2546C45.7563 42.2208 45.8892 42.1594 46.0062 42.0741C46.1232 41.9888 46.2221 41.8813 46.2972 41.7577C46.4077 41.5503 46.4445 41.3118 46.4017 41.0809V26.7371L42.6896 28.8717C41.6833 29.4472 40.5431 29.7501 39.3827 29.7501C38.2222 29.7501 37.082 29.4472 36.0757 28.8717L13.2016 15.6213C13.0787 15.5471 12.942 15.4983 12.7997 15.4778C12.6574 15.4573 12.5125 15.4655 12.3735 15.5019C12.2344 15.5384 12.1042 15.6023 11.9905 15.6899C11.8768 15.7774 11.7819 15.8869 11.7115 16.0118C11.6118 16.177 11.5576 16.3656 11.5547 16.5584V23.0144L32.3897 34.9893Z" fill="url(#paint4_linear)"/>
<path d="M11.5547 31.0038L15.2668 28.8691C16.2683 28.2934 17.4043 27.9902 18.5607 27.9902C19.7171 27.9902 20.8531 28.2934 21.8546 28.8691L45.3822 42.3278" stroke="url(#paint5_linear)" stroke-opacity="0.3" stroke-width="0.06" stroke-miterlimit="10" stroke-linecap="round"/>
<path d="M46.5841 26.9172L42.872 29.0518C41.8657 29.6273 40.7255 29.9302 39.565 29.9302C38.4046 29.9302 37.2644 29.6273 36.2581 29.0518L13.0703 15.6191" stroke="url(#paint6_linear)" stroke-opacity="0.3" stroke-width="0.06" stroke-miterlimit="10" stroke-linecap="round"/>
<path d="M12.8613 42.3274L25.6447 34.9863" stroke="url(#paint7_linear)" stroke-opacity="0.3" stroke-width="0.06" stroke-miterlimit="10" stroke-linecap="round"/>
<path d="M32.4414 22.9609L45.277 15.5938" stroke="url(#paint8_linear)" stroke-opacity="0.3" stroke-width="0.06" stroke-miterlimit="10" stroke-linecap="round"/>
<path d="M85.9274 28.6364C86.7874 28.1813 87.5027 27.4961 87.9926 26.6579C88.5054 25.7732 88.759 24.7632 88.7246 23.7423C88.7651 22.9705 88.6174 22.2005 88.2942 21.4978C87.971 20.7952 87.4819 20.1809 86.8685 19.7073C85.3156 18.7096 83.4855 18.2266 81.6402 18.3276H75.8105V39.8823H82.5551C84.4181 39.941 86.2508 39.4026 87.7835 38.3464C88.5093 37.8168 89.0855 37.1096 89.4565 36.2933C89.8274 35.477 89.9805 34.5792 89.901 33.6867C89.9192 32.5934 89.5592 31.5272 88.8815 30.6669C88.0947 29.7415 87.0753 29.0408 85.9274 28.6364ZM79.1567 21.5035H81.7709C82.7021 21.4241 83.6307 21.683 84.3851 22.2324C84.693 22.4935 84.9359 22.8222 85.0947 23.1926C85.2534 23.563 85.3237 23.965 85.3 24.3671C85.3283 25.1565 85.0577 25.9277 84.5419 26.5278C84.2518 26.8243 83.9006 27.0546 83.5125 27.2029C83.1243 27.3512 82.7086 27.414 82.2937 27.3868H79.1567V21.5035ZM85.1432 35.8734C84.2873 36.4179 83.2818 36.6819 82.2676 36.6283H79.1567V30.6669H82.0323C83.0751 30.6423 84.1079 30.8748 85.0386 31.3438C85.4254 31.5652 85.7428 31.8894 85.9552 32.2802C86.1675 32.671 86.2665 33.1129 86.2411 33.5565C86.2742 34.0042 86.1905 34.4528 85.9982 34.8587C85.8058 35.2647 85.5113 35.6142 85.1432 35.8734Z" fill="#1C1F3E"/>
<path d="M110.083 32.6977L94.5287 17.4688H94.3457V39.7524H97.8748L97.7703 25.4607L113.377 40.5073H113.482V18.1977H110.031L110.083 32.6977Z" fill="#1C1F3E"/>
<path d="M133.899 19.4728C132.224 18.4881 130.315 17.9687 128.37 17.9688C126.425 17.9688 124.516 18.4881 122.841 19.4728C121.226 20.4486 119.878 21.8081 118.92 23.4297C117.937 25.0942 117.422 26.9916 117.43 28.9226C117.418 30.8705 117.933 32.7857 118.92 34.4674C119.884 36.1338 121.272 37.5168 122.946 38.4764C124.63 39.4448 126.543 39.948 128.488 39.9342C130.39 39.9413 132.26 39.4377 133.899 38.4764C135.547 37.5154 136.923 36.154 137.899 34.5195C138.903 32.8543 139.419 30.9426 139.389 29.0006C139.463 27.0475 138.973 25.1143 137.977 23.4297C136.967 21.7954 135.566 20.4359 133.899 19.4728ZM134.919 32.8795C134.297 34.0052 133.397 34.9548 132.305 35.6389C131.179 36.344 129.87 36.7059 128.54 36.6802C127.198 36.6769 125.88 36.3175 124.723 35.6389C123.634 34.9397 122.736 33.9827 122.109 32.8534C121.441 31.6785 121.089 30.3511 121.09 29.0006C121.13 27.6339 121.516 26.2995 122.214 25.1218C122.837 23.983 123.736 23.0168 124.828 22.3103C125.971 21.6344 127.276 21.2776 128.606 21.2776C129.935 21.2776 131.24 21.6344 132.383 22.3103C133.475 23.0168 134.374 23.983 134.997 25.1218C135.67 26.3044 136.022 27.6414 136.017 29.0006C136.07 30.346 135.773 31.6822 135.154 32.8795H134.919Z" fill="#1C1F3E"/>
<path d="M152.875 32.5391L157.424 25.4844H152.875L150.68 29.207L148.248 25.4844H143.595L148.118 32.435L143.412 39.7501H148.013L150.34 35.8192L152.902 39.7501H157.607L152.875 32.5391Z" fill="#1C1F3E"/>
<path d="M171.411 11.6383C172.194 12.1063 172.85 12.759 173.32 13.5387C173.771 14.3321 174.006 15.2298 173.999 16.1419C174.006 17.0539 173.771 17.9516 173.32 18.7451C172.987 19.3436 172.539 19.8709 172.001 20.2969C171.464 20.7228 170.847 21.0392 170.187 21.2278C169.526 21.4163 168.835 21.4734 168.153 21.3959C167.47 21.3183 166.81 21.1075 166.209 20.7756C165.352 20.3025 164.645 19.5989 164.17 18.7451C163.733 17.9464 163.504 17.0514 163.504 16.1419C163.504 15.2323 163.733 14.3373 164.17 13.5387C164.626 12.7548 165.285 12.1074 166.078 11.6643C166.892 11.2114 167.809 10.9714 168.741 10.9669C169.674 10.9623 170.593 11.1933 171.411 11.6383ZM171.097 20.255C171.795 19.8594 172.373 19.2838 172.771 18.5889C173.169 17.8623 173.377 17.0477 173.377 16.22C173.377 15.3922 173.169 14.5777 172.771 13.851C172.381 13.1504 171.801 12.5731 171.097 12.185C170.381 11.7762 169.57 11.5612 168.745 11.5612C167.919 11.5612 167.108 11.7762 166.392 12.185C165.681 12.5725 165.093 13.1494 164.693 13.851C164.295 14.5777 164.086 15.3922 164.086 16.22C164.086 17.0477 164.295 17.8623 164.693 18.5889C165.082 19.2966 165.661 19.8825 166.366 20.281C167.086 20.6776 167.896 20.8856 168.719 20.8856C169.542 20.8856 170.351 20.6776 171.071 20.281L171.097 20.255ZM170.366 17.3394L171.594 19.3178H170.653L169.451 17.3394C169.344 17.1552 169.191 17.0025 169.006 16.8968C168.793 16.8354 168.566 16.8354 168.353 16.8968H167.359V19.5001H166.653V13.1742H169.268C169.819 13.1226 170.37 13.2807 170.81 13.6167C170.991 13.7915 171.134 14.0024 171.229 14.2356C171.323 14.4687 171.368 14.7191 171.359 14.9704C171.372 15.1837 171.342 15.3973 171.27 15.5986C171.198 15.7999 171.086 15.9847 170.941 16.1419C170.61 16.4537 170.189 16.6541 169.738 16.7146C169.906 16.7651 170.062 16.8488 170.197 16.9606C170.331 17.0724 170.442 17.2101 170.522 17.3654L170.366 17.3394ZM169.032 16.0378C169.392 16.0663 169.751 15.9747 170.052 15.7774C170.166 15.6726 170.254 15.5427 170.308 15.398C170.362 15.2534 170.382 15.098 170.366 14.9444C170.371 14.7809 170.338 14.6183 170.27 14.4694C170.202 14.3204 170.1 14.189 169.973 14.0853C169.672 13.888 169.313 13.7964 168.954 13.825H167.359V16.0638L169.032 16.0378Z" fill="#1C1F3D"/>
<defs>
<linearGradient id="paint0_linear" x1="18.064" y1="28.273" x2="18.064" y2="41.966" gradientUnits="userSpaceOnUse">
<stop stop-color="#E62550"/>
<stop offset="1" stop-color="#F7A608"/>
</linearGradient>
<linearGradient id="paint1_linear" x1="797.881" y1="2470.68" x2="797.881" y2="2719.78" gradientUnits="userSpaceOnUse">
<stop stop-color="#E62550"/>
<stop offset="1" stop-color="#F7A608"/>
</linearGradient>
<linearGradient id="paint2_linear" x1="42.5871" y1="21.1649" x2="12.6134" y2="38.5594" gradientUnits="userSpaceOnUse">
<stop offset="0.04" stop-color="#814A97" stop-opacity="0"/>
<stop offset="0.13" stop-color="#814A97" stop-opacity="0.25"/>
<stop offset="0.4" stop-color="#814A97"/>
<stop offset="0.6" stop-color="#4D3D91"/>
<stop offset="0.64" stop-color="#503E91" stop-opacity="0.94"/>
<stop offset="0.7" stop-color="#594092" stop-opacity="0.77"/>
<stop offset="0.78" stop-color="#674494" stop-opacity="0.5"/>
<stop offset="0.86" stop-color="#7B4896" stop-opacity="0.12"/>
<stop offset="0.89" stop-color="#814A97" stop-opacity="0"/>
</linearGradient>
<linearGradient id="paint3_linear" x1="45.8266" y1="42.7469" x2="8.10693" y2="20.5333" gradientUnits="userSpaceOnUse">
<stop stop-color="#F7A608"/>
<stop offset="1" stop-color="#E62550"/>
</linearGradient>
<linearGradient id="paint4_linear" x1="18.7437" y1="19.3439" x2="44.2321" y2="33.8315" gradientUnits="userSpaceOnUse">
<stop stop-color="#E62550" stop-opacity="0"/>
<stop offset="0.03" stop-color="#E7304E" stop-opacity="0.14"/>
<stop offset="0.08" stop-color="#E9414A" stop-opacity="0.36"/>
<stop offset="0.13" stop-color="#EA5046" stop-opacity="0.56"/>
<stop offset="0.18" stop-color="#EC5C44" stop-opacity="0.72"/>
<stop offset="0.24" stop-color="#ED6542" stop-opacity="0.84"/>
<stop offset="0.29" stop-color="#ED6C40" stop-opacity="0.93"/>
<stop offset="0.34" stop-color="#EE703F" stop-opacity="0.98"/>
<stop offset="0.38" stop-color="#EE713F"/>
<stop offset="1" stop-color="#F7A608"/>
</linearGradient>
<linearGradient id="paint5_linear" x1="11.4763" y1="35.169" x2="45.3561" y2="35.169" gradientUnits="userSpaceOnUse">
<stop stop-color="white" stop-opacity="0"/>
<stop offset="0.5" stop-color="white"/>
<stop offset="1" stop-color="white" stop-opacity="0"/>
</linearGradient>
<linearGradient id="paint6_linear" x1="207273" y1="19684.5" x2="206841" y2="19684.5" gradientUnits="userSpaceOnUse">
<stop stop-color="white" stop-opacity="0"/>
<stop offset="0.5" stop-color="white"/>
<stop offset="1" stop-color="white" stop-opacity="0"/>
</linearGradient>
<linearGradient id="paint7_linear" x1="515.189" y1="-432.737" x2="578.466" y2="-432.737" gradientUnits="userSpaceOnUse">
<stop stop-color="white" stop-opacity="0"/>
<stop offset="0.5" stop-color="white"/>
<stop offset="1" stop-color="white" stop-opacity="0"/>
</linearGradient>
<linearGradient id="paint8_linear" x1="633.425" y1="-470.624" x2="697.218" y2="-470.624" gradientUnits="userSpaceOnUse">
<stop stop-color="white" stop-opacity="0"/>
<stop offset="0.5" stop-color="white"/>
<stop offset="1" stop-color="white" stop-opacity="0"/>
</linearGradient>
</defs>
</svg>
