<svg width="299" height="105" viewBox="0 0 299 105" fill="none" xmlns="http://www.w3.org/2000/svg">
<path d="M297.811 32.1184C297.195 31.0346 296.293 30.1325 295.21 29.5172C292.923 28.2586 290.154 28.2586 287.875 29.5172C286.791 30.1395 285.896 31.0276 285.274 32.1044C284.015 34.3839 284.015 37.1529 285.274 39.4394C285.896 40.5302 286.798 41.4322 287.889 42.0545C290.161 43.3341 292.937 43.3341 295.21 42.0545C296.3 41.4322 297.195 40.5302 297.818 39.4394C299.076 37.1599 299.076 34.3909 297.811 32.1184ZM297.062 39.0408C295.937 41.0266 293.825 42.2363 291.539 42.2083C289.245 42.2503 287.113 41.0336 285.973 39.0408C284.854 37.013 284.854 34.5517 285.973 32.5169C286.519 31.552 287.316 30.7549 288.274 30.2025C289.259 29.6361 290.378 29.3494 291.518 29.3634C292.651 29.3494 293.762 29.6361 294.748 30.2025C295.706 30.7549 296.496 31.552 297.041 32.5169C298.16 34.5447 298.16 37.006 297.041 39.0408H297.062Z" fill="url(#paint0_linear)"/>
<path d="M292.718 36.4042C293.34 36.3413 293.914 36.0686 294.354 35.628C294.753 35.1875 294.962 34.6002 294.934 34.0058C294.983 33.3066 294.704 32.6213 294.179 32.1528C293.578 31.6843 292.83 31.4536 292.075 31.5025H288.684V40.0472H289.823V36.5301H291.061C291.362 36.5161 291.662 36.572 291.942 36.6979C292.201 36.8447 292.41 37.0615 292.557 37.3132L294.214 40.0332H295.487L293.809 37.3132C293.571 36.8867 293.179 36.558 292.718 36.4042ZM291.935 35.5441H289.795V32.4815H291.935C292.431 32.4395 292.928 32.5724 293.34 32.8521C293.655 33.1527 293.816 33.5863 293.781 34.0198C293.816 34.4533 293.648 34.8799 293.326 35.1665C292.914 35.4532 292.424 35.5861 291.935 35.5441Z" fill="url(#paint1_linear)"/>
<path d="M188.075 54.6837C189.621 53.8446 190.914 52.607 191.816 51.1036C192.725 49.4884 193.187 47.6564 193.138 45.8034C193.138 42.5729 192.005 40.1256 189.747 38.4544C187.488 36.7833 184.307 35.9512 180.216 35.9512H169.512V75.1294H181.727C185.111 75.2482 188.439 74.2763 191.229 72.3534C193.795 70.5004 195.074 67.6755 195.074 63.8787C195.109 61.8928 194.452 59.9559 193.222 58.3966C191.851 56.7255 190.082 55.4459 188.075 54.6837ZM175.805 41.9786H180.482C182.111 41.8737 183.733 42.3352 185.069 43.2722C186.188 44.2301 186.782 45.6706 186.67 47.1389C186.719 48.5794 186.23 49.9778 185.293 51.0756C184.244 52.1874 182.755 52.7748 181.23 52.6769H175.805V41.9786ZM186.614 67.9482C185.069 68.9201 183.272 69.3956 181.447 69.3187H175.805V58.6624H181.021C182.901 58.5994 184.768 59.019 186.432 59.893C187.873 60.7111 188.719 62.2774 188.607 63.9346C188.691 65.5288 187.936 67.0532 186.614 67.9482Z" fill="url(#paint2_linear)"/>
<path d="M222.807 55.0783C221.241 54.1133 219.577 53.3232 217.836 52.7358C215.759 51.9947 213.773 51.0087 211.927 49.7991C210.627 49.0229 209.823 47.6244 209.802 46.1141C209.746 44.7226 210.382 43.3941 211.494 42.562C212.843 41.632 214.465 41.1845 216.102 41.2754C218.717 41.2754 221.709 42.1494 225.086 43.9045L227.484 39.1077C225.764 38.0309 223.905 37.1918 221.954 36.6185C219.73 35.9891 217.43 35.6885 215.123 35.7234C211.976 35.7164 208.935 36.8352 206.544 38.877C204.369 40.8418 203.173 43.6737 203.278 46.6035C203.208 48.5474 203.768 50.4633 204.879 52.0646C205.886 53.47 207.201 54.6308 208.725 55.4559C210.508 56.4068 212.361 57.2249 214.263 57.9032C216.074 58.5465 217.773 59.4695 219.29 60.6512C220.444 61.5602 221.108 62.9517 221.087 64.4201C221.178 66.1122 220.339 67.7205 218.898 68.6085C217.395 69.5385 215.661 70.021 213.892 69.986C212.172 69.951 210.466 69.6084 208.865 68.9861C207.18 68.3917 205.593 67.5457 204.152 66.4828L201.355 71.3845C203.229 72.713 205.299 73.7339 207.487 74.4261C209.746 75.1533 212.109 75.5309 214.486 75.5309C216.913 75.6079 219.325 75.0974 221.513 74.0486C223.366 73.1675 224.932 71.783 226.037 70.0489C227.079 68.3498 227.617 66.3919 227.596 64.3921C227.673 62.4063 227.205 60.4344 226.254 58.6933C225.415 57.2319 224.226 55.9943 222.807 55.0783Z" fill="url(#paint3_linear)"/>
<path d="M263.075 38.2652C256.915 34.6082 249.245 34.6082 243.085 38.2652C240.064 40.0413 237.554 42.5725 235.792 45.6072C232.212 51.8094 232.212 59.4521 235.792 65.6543C239.386 71.8076 245.994 75.5834 253.118 75.5625C256.635 75.5834 260.096 74.6535 263.131 72.8704C266.166 71.1293 268.697 68.626 270.48 65.6123C274.136 59.4521 274.136 51.7814 270.48 45.6212C268.676 42.5725 266.131 40.0413 263.075 38.2652ZM264.907 62.6126C263.753 64.6963 262.068 66.4444 260.027 67.6751C257.978 68.9197 255.622 69.563 253.23 69.528C250.797 69.549 248.406 68.8987 246.322 67.6401C242.064 65.1229 239.47 60.5359 239.512 55.5923C239.491 53.124 240.113 50.6906 241.316 48.537C242.47 46.4323 244.155 44.6702 246.21 43.4256C250.427 40.9083 255.692 40.9083 259.908 43.4256C261.977 44.6702 263.683 46.4253 264.858 48.537C267.277 52.9142 267.277 58.2284 264.858 62.6126H264.907V62.6126Z" fill="url(#paint4_linear)"/>
<path d="M150.631 69.6992C149.533 70.1467 148.386 70.3704 147.177 70.3704C145.478 70.3704 143.946 69.9649 142.583 69.1608C141.387 68.4545 140.423 67.5036 139.674 66.3288L161.517 58.7701C160.664 54.8404 159.007 51.7778 156.525 49.5891C154.043 47.4005 150.931 46.3027 147.177 46.3027C144.268 46.3027 141.625 46.974 139.234 48.3165C136.843 49.6591 134.941 51.4561 133.535 53.7146C132.13 55.9732 131.424 58.4834 131.424 61.2594C131.424 64.1682 132.046 66.7484 133.298 68.9999C134.549 71.2585 136.339 73.0205 138.661 74.2931C140.982 75.5658 143.779 76.2021 147.037 76.2021C148.687 76.2021 150.379 75.9224 152.099 75.363C153.819 74.8036 155.42 74.0554 156.896 73.1184L153.742 68.021C152.763 68.6923 151.722 69.2517 150.631 69.6992ZM139.297 56.127C140.038 54.7635 141.038 53.6937 142.317 52.9105C143.59 52.1274 145.03 51.7358 146.638 51.7358C148.652 51.7358 150.232 52.2602 151.4 53.3091C152.47 54.281 153.267 55.3928 153.805 56.6514L138.269 62.2313C138.227 61.8048 138.199 61.3713 138.199 60.9238C138.192 59.0848 138.563 57.4905 139.297 56.127Z" fill="url(#paint5_linear)"/>
<path d="M52.4934 88.4585C72.7128 88.4585 89.1039 72.1867 89.1039 52.1145C89.1039 32.0423 72.7128 15.7705 52.4934 15.7705C32.2739 15.7705 15.8828 32.0423 15.8828 52.1145C15.8828 72.1867 32.2739 88.4585 52.4934 88.4585Z" fill="white"/>
<path d="M52.8851 0C23.6739 0 0 23.5085 0 52.5C0 81.4915 23.6739 105 52.8851 105C82.0962 105 105.77 81.4985 105.77 52.5C105.77 23.5015 82.0892 0 52.8851 0ZM77.0508 69.1094L72.5957 75.2481C70.1995 78.5477 66.3628 80.5009 62.2661 80.5009H38.9224C32.9776 80.5009 28.1571 75.7155 28.1571 69.814V62.301H47.1159L30.6447 48.6005C26.5971 45.587 25.796 39.8877 28.8598 35.8906L33.7646 29.4868C36.1679 26.3407 39.9203 24.4991 43.8975 24.4991H66.925C72.8698 24.4991 77.6903 29.2845 77.6903 35.186V42.699L59.0196 42.706L75.259 56.6785C79.1168 59.6781 79.9108 65.1681 77.0508 69.1094Z" fill="url(#paint6_linear)"/>
<path d="M39.0039 25.4688L38.9336 25.4967L40.3671 26.7663L59.0097 42.72L76.4647 42.713L77.315 42.7548C77.1322 42.7409 76.9566 42.72 76.7809 42.713H77.6874C77.6874 42.713 75.8323 42.713 72.7544 42.2526C53.0859 39.1832 39.1303 25.4199 39.1303 25.4199L39.0039 25.4688C38.9968 25.4688 38.9968 25.4688 39.0039 25.4688Z" fill="url(#paint7_linear)"/>
<path d="M67.2277 79.5252L67.2979 79.4973L65.8644 78.2277L47.1094 62.3019L29.7598 62.2879L28.9095 62.2461C29.0922 62.26 29.2679 62.281 29.4436 62.2879H28.5371C28.5371 62.2879 30.3922 62.2879 33.47 62.7484C53.1315 65.8107 67.0871 79.567 67.0871 79.567L67.2277 79.5252Z" fill="url(#paint8_linear)"/>
<defs>
<linearGradient id="paint0_linear" x1="291.545" y1="28.5732" x2="291.545" y2="43.0142" gradientUnits="userSpaceOnUse">
<stop stop-color="#FFA42C"/>
<stop offset="1" stop-color="#FFB901"/>
</linearGradient>
<linearGradient id="paint1_linear" x1="292.085" y1="31.4961" x2="292.085" y2="40.0472" gradientUnits="userSpaceOnUse">
<stop stop-color="#FFA42C"/>
<stop offset="1" stop-color="#FFB901"/>
</linearGradient>
<linearGradient id="paint2_linear" x1="182.294" y1="35.9512" x2="182.294" y2="75.1391" gradientUnits="userSpaceOnUse">
<stop stop-color="#FFA42C"/>
<stop offset="1" stop-color="#FFB901"/>
</linearGradient>
<linearGradient id="paint3_linear" x1="214.48" y1="35.7207" x2="214.48" y2="75.5385" gradientUnits="userSpaceOnUse">
<stop stop-color="#FFA42C"/>
<stop offset="1" stop-color="#FFB901"/>
</linearGradient>
<linearGradient id="paint4_linear" x1="253.165" y1="35.5225" x2="253.165" y2="75.5628" gradientUnits="userSpaceOnUse">
<stop stop-color="#FFA42C"/>
<stop offset="1" stop-color="#FFB901"/>
</linearGradient>
<linearGradient id="paint5_linear" x1="146.471" y1="46.3027" x2="146.471" y2="76.2021" gradientUnits="userSpaceOnUse">
<stop stop-color="#FFA42C"/>
<stop offset="1" stop-color="#FFB901"/>
</linearGradient>
<linearGradient id="paint6_linear" x1="-80.6374" y1="-4.00461" x2="96.555" y2="72.0894" gradientUnits="userSpaceOnUse">
<stop offset="0.2029" stop-color="#FF9846"/>
<stop offset="1" stop-color="#FFB900"/>
</linearGradient>
<linearGradient id="paint7_linear" x1="75.1731" y1="47.2491" x2="40.4358" y2="23.8169" gradientUnits="userSpaceOnUse">
<stop offset="0.0688" stop-color="#FFB112"/>
<stop offset="0.741" stop-color="#FFA600"/>
</linearGradient>
<linearGradient id="paint8_linear" x1="28.6036" y1="54.6252" x2="51.5205" y2="73.9667" gradientUnits="userSpaceOnUse">
<stop offset="0.1707" stop-color="#FFA700"/>
<stop offset="1" stop-color="#FFB70F"/>
</linearGradient>
</defs>
</svg>
