<svg xmlns="http://www.w3.org/2000/svg" xmlns:xlink="http://www.w3.org/1999/xlink" width="1000" zoomAndPan="magnify" viewBox="0 0 750 149.999998" height="200" preserveAspectRatio="xMidYMid meet" version="1.0"><defs><g/><clipPath id="d4780aa290"><path d="M 104 15 L 193.5 15 L 193.5 94 L 104 94 Z M 104 15 " clip-rule="nonzero"/></clipPath></defs><path fill="#0652e9" d="M 75.105469 112.007812 L 75.105469 122.867188 L 25.902344 100.019531 L 25.902344 91.207031 L 75.105469 68.355469 L 75.105469 79.21875 L 37.894531 95.507812 L 37.894531 95.714844 Z M 104.324219 56.289062 L 22.042969 56.289062 C 18.15625 56.289062 15.007812 59.433594 15.007812 63.320312 L 15.007812 127.90625 C 15.007812 131.789062 18.15625 134.9375 22.042969 134.9375 L 81.484375 134.9375 L 104.324219 56.289062 " fill-opacity="1" fill-rule="nonzero"/><g clip-path="url(#d4780aa290)"><path fill="#62e1e9" d="M 182.617188 59.082031 L 133.417969 81.625 L 133.417969 70.761719 L 171.445312 54.46875 L 171.445312 54.265625 L 133.417969 37.972656 L 133.417969 27.109375 L 182.617188 49.652344 Z M 127.171875 15.042969 L 104.324219 93.691406 L 186.476562 93.691406 C 190.363281 93.691406 193.511719 90.542969 193.511719 86.660156 L 193.511719 22.074219 C 193.511719 18.191406 190.363281 15.042969 186.476562 15.042969 L 127.171875 15.042969 " fill-opacity="1" fill-rule="nonzero"/></g><g fill="#ffffff" fill-opacity="1"><g transform="translate(228.577639, 97.124996)"><g><path d="M 15.476562 -23.257812 L 45.746094 -23.257812 L 56.265625 0 L 60.027344 0 L 30.613281 -65.15625 L 1.28125 0 L 5.046875 0 Z M 44.464844 -26.25 L 16.757812 -26.25 L 30.613281 -57.035156 Z M 44.464844 -26.25 "/></g></g></g><g fill="#ffffff" fill-opacity="1"><g transform="translate(293.643539, 97.124996)"><g><path d="M 56.347656 -23.855469 C 56.347656 -30.613281 53.871094 -36.339844 48.996094 -41.128906 C 44.121094 -46.003906 38.308594 -48.398438 31.550781 -48.398438 C 24.796875 -48.398438 18.984375 -46.003906 14.109375 -41.128906 C 9.234375 -36.339844 6.839844 -30.613281 6.839844 -23.855469 L 6.839844 0 L 10.003906 0 L 10.003906 -23.855469 C 10.003906 -29.757812 12.140625 -34.800781 16.417969 -38.992188 C 20.691406 -43.265625 25.738281 -45.40625 31.550781 -45.40625 C 37.453125 -45.40625 42.496094 -43.265625 46.773438 -38.992188 C 51.046875 -34.800781 53.1875 -29.757812 53.1875 -23.855469 L 53.1875 0 L 56.347656 0 Z M 56.347656 -23.855469 "/></g></g></g><g fill="#ffffff" fill-opacity="1"><g transform="translate(360.590448, 97.124996)"><g><path d="M 39.332031 -46.515625 C 36.425781 -47.796875 33.261719 -48.398438 29.757812 -48.398438 C 23.171875 -48.398438 17.445312 -46.003906 12.484375 -41.300781 C 7.609375 -36.597656 5.128906 -30.78125 5.128906 -23.769531 C 5.128906 -17.1875 7.523438 -11.371094 12.226562 -6.5 C 17.015625 -1.625 22.832031 0.855469 29.757812 0.855469 C 36.253906 0.855469 41.984375 -1.453125 46.945312 -6.15625 C 51.902344 -10.859375 54.382812 -16.757812 54.382812 -23.769531 L 54.382812 -66.355469 L 51.390625 -66.355469 L 51.390625 -23.171875 C 51.390625 -17.613281 49.253906 -12.65625 44.890625 -8.464844 C 40.617188 -4.273438 35.570312 -2.136719 29.757812 -2.136719 C 23.855469 -2.136719 18.8125 -4.273438 14.535156 -8.464844 C 10.261719 -12.65625 8.125 -17.785156 8.125 -23.769531 C 8.125 -29.585938 10.175781 -34.628906 14.367188 -38.90625 C 18.554688 -43.265625 23.6875 -45.40625 29.757812 -45.40625 C 32.835938 -45.40625 35.65625 -44.804688 38.136719 -43.695312 Z M 39.332031 -46.515625 "/></g></g></g><g fill="#ffffff" fill-opacity="1"><g transform="translate(425.570844, 97.124996)"><g><path d="M 55.835938 -47.542969 L 52.84375 -47.542969 L 52.84375 -25.308594 C 52.84375 -19.410156 50.707031 -14.367188 46.429688 -10.175781 C 42.242188 -5.984375 37.109375 -3.847656 31.210938 -3.847656 C 25.394531 -3.847656 20.351562 -5.898438 16.074219 -10.089844 C 11.886719 -14.28125 9.746094 -19.238281 9.746094 -24.96875 L 9.746094 -47.542969 L 6.839844 -47.542969 L 6.839844 -24.113281 C 6.839844 -17.527344 9.234375 -11.972656 14.023438 -7.523438 C 18.8125 -3.078125 24.539062 -0.855469 31.210938 -0.855469 C 35.742188 -0.855469 40.1875 -2.136719 44.464844 -4.617188 C 48.738281 -7.097656 51.5625 -10.347656 52.84375 -14.28125 L 52.84375 -4.703125 C 52.84375 1.195312 50.707031 6.328125 46.515625 10.515625 C 42.328125 14.792969 37.195312 16.929688 31.296875 16.929688 C 25.054688 16.929688 20.007812 14.792969 16.074219 10.601562 L 13.9375 12.65625 C 18.640625 17.527344 24.371094 19.921875 31.296875 19.921875 C 37.707031 19.921875 43.351562 17.613281 48.3125 12.910156 C 53.355469 8.292969 55.835938 2.394531 55.835938 -4.703125 Z M 55.835938 -47.542969 "/></g></g></g><g fill="#ffffff" fill-opacity="1"><g transform="translate(492.859742, 97.124996)"><g><path d="M 54.640625 -41.300781 C 54.640625 -47.628906 52.332031 -53.1875 47.796875 -57.886719 C 43.265625 -62.589844 37.625 -64.984375 30.953125 -64.984375 C 24.710938 -64.984375 19.238281 -62.675781 14.449219 -58.144531 C 9.664062 -53.613281 7.269531 -48.054688 7.269531 -41.300781 L 7.269531 0 L 10.433594 0 L 10.433594 -41.214844 C 10.433594 -46.773438 12.484375 -51.5625 16.503906 -55.75 C 20.605469 -59.941406 25.394531 -61.992188 30.953125 -61.992188 C 36.511719 -61.992188 41.386719 -60.027344 45.40625 -56.09375 C 49.421875 -52.160156 51.476562 -47.199219 51.476562 -41.300781 C 51.476562 -35.828125 49.507812 -31.039062 45.660156 -26.847656 C 41.8125 -22.660156 36.9375 -20.605469 30.953125 -20.605469 C 28.386719 -20.605469 25.652344 -21.207031 22.832031 -22.316406 L 21.71875 -19.496094 C 24.710938 -18.214844 27.789062 -17.613281 30.953125 -17.613281 C 32.664062 -17.613281 34.117188 -17.785156 35.316406 -18.042969 L 48.140625 0 L 52.160156 0 L 38.476562 -18.898438 C 43.097656 -20.523438 46.945312 -23.34375 50.023438 -27.363281 C 53.101562 -31.382812 54.640625 -36.085938 54.640625 -41.300781 Z M 54.640625 -41.300781 "/></g></g></g><g fill="#ffffff" fill-opacity="1"><g transform="translate(556.386647, 97.124996)"><g><path d="M 53.015625 -47.542969 L 53.015625 -23.6875 C 53.015625 -17.785156 50.878906 -12.65625 46.601562 -8.464844 C 42.328125 -4.273438 37.28125 -2.136719 31.464844 -2.136719 C 25.566406 -2.136719 20.4375 -4.273438 16.246094 -8.464844 C 12.054688 -12.65625 9.917969 -17.785156 9.917969 -23.6875 L 9.917969 -47.542969 L 6.839844 -47.542969 L 6.839844 -23.6875 C 6.839844 -16.929688 9.234375 -11.117188 14.023438 -6.328125 C 18.898438 -1.539062 24.710938 0.855469 31.464844 0.855469 C 38.136719 0.855469 43.867188 -1.539062 48.738281 -6.328125 C 53.613281 -11.117188 56.007812 -16.929688 56.007812 -23.6875 L 56.007812 -47.542969 Z M 53.015625 -47.542969 "/></g></g></g><g fill="#ffffff" fill-opacity="1"><g transform="translate(622.991555, 97.124996)"><g><path d="M 70.03125 -32.066406 C 70.03125 -36.511719 68.320312 -40.359375 64.984375 -43.523438 C 61.652344 -46.6875 57.804688 -48.3125 53.441406 -48.3125 C 47.199219 -48.3125 41.386719 -44.804688 38.5625 -39.417969 C 35.742188 -44.890625 29.84375 -48.3125 23.6875 -48.3125 C 19.152344 -48.3125 15.136719 -46.6875 11.800781 -43.523438 C 8.464844 -40.359375 6.839844 -36.511719 6.839844 -32.066406 L 6.839844 0 L 10.003906 0 L 10.003906 -31.382812 C 10.003906 -35.144531 11.371094 -38.394531 14.023438 -41.128906 C 16.675781 -43.949219 19.921875 -45.320312 23.6875 -45.320312 C 29.757812 -45.320312 34.972656 -41.386719 36.9375 -35.316406 L 36.9375 0 L 40.101562 0 L 40.101562 -35.316406 C 41.898438 -41.214844 47.371094 -45.320312 53.441406 -45.320312 C 57.289062 -45.320312 60.453125 -43.949219 63.019531 -41.214844 C 65.585938 -38.476562 66.867188 -35.230469 66.867188 -31.382812 L 66.867188 0 L 70.03125 0 Z M 70.03125 -32.066406 "/></g></g></g></svg>