<svg xmlns="http://www.w3.org/2000/svg" xmlns:xlink="http://www.w3.org/1999/xlink" width="1000" zoomAndPan="magnify" viewBox="0 0 750 149.999998" height="200" preserveAspectRatio="xMidYMid meet" version="1.0"><defs><g/><clipPath id="b8f9ef057b"><path d="M 104 15 L 193.5 15 L 193.5 94 L 104 94 Z M 104 15 " clip-rule="nonzero"/></clipPath></defs><path fill="#0652e9" d="M 75.105469 112.007812 L 75.105469 122.867188 L 25.902344 100.019531 L 25.902344 91.207031 L 75.105469 68.355469 L 75.105469 79.21875 L 37.894531 95.507812 L 37.894531 95.714844 Z M 104.324219 56.289062 L 22.042969 56.289062 C 18.15625 56.289062 15.007812 59.433594 15.007812 63.320312 L 15.007812 127.90625 C 15.007812 131.789062 18.15625 134.9375 22.042969 134.9375 L 81.484375 134.9375 L 104.324219 56.289062 " fill-opacity="1" fill-rule="nonzero"/><g clip-path="url(#b8f9ef057b)"><path fill="#38b6ff" d="M 182.617188 59.082031 L 133.417969 81.625 L 133.417969 70.761719 L 171.445312 54.46875 L 171.445312 54.265625 L 133.417969 37.972656 L 133.417969 27.109375 L 182.617188 49.652344 Z M 127.171875 15.042969 L 104.324219 93.691406 L 186.476562 93.691406 C 190.363281 93.691406 193.511719 90.542969 193.511719 86.660156 L 193.511719 22.074219 C 193.511719 18.191406 190.363281 15.042969 186.476562 15.042969 L 127.171875 15.042969 " fill-opacity="1" fill-rule="nonzero"/></g><g fill="#000000" fill-opacity="1"><g transform="translate(228.577464, 97.124996)"><g><path d="M 15.476562 -23.257812 L 45.742188 -23.257812 L 56.257812 0 L 60.019531 0 L 30.609375 -65.152344 L 1.28125 0 L 5.042969 0 Z M 44.460938 -26.25 L 16.757812 -26.25 L 30.609375 -57.027344 Z M 44.460938 -26.25 "/></g></g></g><g fill="#000000" fill-opacity="1"><g transform="translate(293.642998, 97.124996)"><g><path d="M 56.34375 -23.855469 C 56.34375 -30.609375 53.863281 -36.335938 48.992188 -41.125 C 44.117188 -46 38.304688 -48.394531 31.550781 -48.394531 C 24.796875 -48.394531 18.980469 -46 14.109375 -41.125 C 9.234375 -36.335938 6.839844 -30.609375 6.839844 -23.855469 L 6.839844 0 L 10.003906 0 L 10.003906 -23.855469 C 10.003906 -29.753906 12.140625 -34.796875 16.414062 -38.988281 C 20.691406 -43.261719 25.734375 -45.402344 31.550781 -45.402344 C 37.449219 -45.402344 42.492188 -43.261719 46.769531 -38.988281 C 51.042969 -34.796875 53.179688 -29.753906 53.179688 -23.855469 L 53.179688 0 L 56.34375 0 Z M 56.34375 -23.855469 "/></g></g></g><g fill="#000000" fill-opacity="1"><g transform="translate(360.589541, 97.124996)"><g><path d="M 39.328125 -46.511719 C 36.421875 -47.792969 33.257812 -48.394531 29.753906 -48.394531 C 23.171875 -48.394531 17.441406 -46 12.484375 -41.296875 C 7.609375 -36.59375 5.128906 -30.78125 5.128906 -23.769531 C 5.128906 -17.183594 7.523438 -11.371094 12.226562 -6.496094 C 17.015625 -1.625 22.828125 0.855469 29.753906 0.855469 C 36.253906 0.855469 41.980469 -1.453125 46.941406 -6.15625 C 51.898438 -10.859375 54.378906 -16.757812 54.378906 -23.769531 L 54.378906 -66.347656 L 51.386719 -66.347656 L 51.386719 -23.171875 C 51.386719 -17.613281 49.246094 -12.652344 44.886719 -8.464844 C 40.613281 -4.273438 35.566406 -2.136719 29.753906 -2.136719 C 23.855469 -2.136719 18.808594 -4.273438 14.535156 -8.464844 C 10.261719 -12.652344 8.121094 -17.785156 8.121094 -23.769531 C 8.121094 -29.582031 10.175781 -34.628906 14.363281 -38.902344 C 18.554688 -43.261719 23.683594 -45.402344 29.753906 -45.402344 C 32.832031 -45.402344 35.652344 -44.800781 38.132812 -43.691406 Z M 39.328125 -46.511719 "/></g></g></g><g fill="#000000" fill-opacity="1"><g transform="translate(425.569571, 97.124996)"><g><path d="M 55.832031 -47.539062 L 52.839844 -47.539062 L 52.839844 -25.308594 C 52.839844 -19.410156 50.703125 -14.363281 46.425781 -10.175781 C 42.238281 -5.984375 37.105469 -3.847656 31.207031 -3.847656 C 25.394531 -3.847656 20.347656 -5.898438 16.074219 -10.089844 C 11.882812 -14.277344 9.746094 -19.238281 9.746094 -24.964844 L 9.746094 -47.539062 L 6.839844 -47.539062 L 6.839844 -24.109375 C 6.839844 -17.527344 9.234375 -11.96875 14.023438 -7.523438 C 18.808594 -3.078125 24.539062 -0.855469 31.207031 -0.855469 C 35.738281 -0.855469 40.183594 -2.136719 44.460938 -4.617188 C 48.734375 -7.097656 51.554688 -10.34375 52.839844 -14.277344 L 52.839844 -4.703125 C 52.839844 1.195312 50.703125 6.328125 46.511719 10.515625 C 42.324219 14.792969 37.191406 16.929688 31.292969 16.929688 C 25.050781 16.929688 20.007812 14.792969 16.074219 10.601562 L 13.9375 12.652344 C 18.640625 17.527344 24.367188 19.921875 31.292969 19.921875 C 37.707031 19.921875 43.347656 17.613281 48.308594 12.910156 C 53.351562 8.292969 55.832031 2.394531 55.832031 -4.703125 Z M 55.832031 -47.539062 "/></g></g></g><g fill="#000000" fill-opacity="1"><g transform="translate(492.858103, 97.124996)"><g><path d="M 54.632812 -41.296875 C 54.632812 -47.625 52.324219 -53.179688 47.792969 -57.882812 C 43.261719 -62.585938 37.621094 -64.980469 30.949219 -64.980469 C 24.710938 -64.980469 19.238281 -62.671875 14.449219 -58.140625 C 9.660156 -53.609375 7.265625 -48.050781 7.265625 -41.296875 L 7.265625 0 L 10.429688 0 L 10.429688 -41.210938 C 10.429688 -46.769531 12.484375 -51.554688 16.5 -55.746094 C 20.605469 -59.933594 25.394531 -61.988281 30.949219 -61.988281 C 36.507812 -61.988281 41.382812 -60.019531 45.402344 -56.089844 C 49.417969 -52.15625 51.472656 -47.195312 51.472656 -41.296875 C 51.472656 -35.824219 49.503906 -31.035156 45.65625 -26.847656 C 41.808594 -22.65625 36.9375 -20.605469 30.949219 -20.605469 C 28.386719 -20.605469 25.648438 -21.203125 22.828125 -22.316406 L 21.71875 -19.492188 C 24.710938 -18.210938 27.789062 -17.613281 30.949219 -17.613281 C 32.660156 -17.613281 34.113281 -17.785156 35.3125 -18.039062 L 48.136719 0 L 52.15625 0 L 38.476562 -18.894531 C 43.09375 -20.519531 46.941406 -23.339844 50.015625 -27.359375 C 53.09375 -31.378906 54.632812 -36.082031 54.632812 -41.296875 Z M 54.632812 -41.296875 "/></g></g></g><g fill="#000000" fill-opacity="1"><g transform="translate(556.384642, 97.124996)"><g><path d="M 53.011719 -47.539062 L 53.011719 -23.683594 C 53.011719 -17.785156 50.871094 -12.652344 46.597656 -8.464844 C 42.324219 -4.273438 37.277344 -2.136719 31.464844 -2.136719 C 25.566406 -2.136719 20.433594 -4.273438 16.246094 -8.464844 C 12.054688 -12.652344 9.917969 -17.785156 9.917969 -23.683594 L 9.917969 -47.539062 L 6.839844 -47.539062 L 6.839844 -23.683594 C 6.839844 -16.929688 9.234375 -11.113281 14.023438 -6.328125 C 18.894531 -1.539062 24.710938 0.855469 31.464844 0.855469 C 38.132812 0.855469 43.863281 -1.539062 48.734375 -6.328125 C 53.609375 -11.113281 56.003906 -16.929688 56.003906 -23.683594 L 56.003906 -47.539062 Z M 53.011719 -47.539062 "/></g></g></g><g fill="#000000" fill-opacity="1"><g transform="translate(622.989184, 97.124996)"><g><path d="M 70.023438 -32.0625 C 70.023438 -36.507812 68.316406 -40.355469 64.980469 -43.519531 C 61.644531 -46.683594 57.796875 -48.308594 53.4375 -48.308594 C 47.195312 -48.308594 41.382812 -44.800781 38.558594 -39.414062 C 35.738281 -44.886719 29.839844 -48.308594 23.683594 -48.308594 C 19.152344 -48.308594 15.132812 -46.683594 11.800781 -43.519531 C 8.464844 -40.355469 6.839844 -36.507812 6.839844 -32.0625 L 6.839844 0 L 10.003906 0 L 10.003906 -31.378906 C 10.003906 -35.140625 11.371094 -38.390625 14.023438 -41.125 C 16.671875 -43.945312 19.921875 -45.316406 23.683594 -45.316406 C 29.753906 -45.316406 34.96875 -41.382812 36.9375 -35.3125 L 36.9375 0 L 40.097656 0 L 40.097656 -35.3125 C 41.894531 -41.210938 47.367188 -45.316406 53.4375 -45.316406 C 57.285156 -45.316406 60.449219 -43.945312 63.011719 -41.210938 C 65.578125 -38.476562 66.859375 -35.226562 66.859375 -31.378906 L 66.859375 0 L 70.023438 0 Z M 70.023438 -32.0625 "/></g></g></g></svg>