
<svg width="111px" height="24px" viewBox="0 0 111 24" version="1.1" xmlns="http://www.w3.org/2000/svg" xmlns:xlink="http://www.w3.org/1999/xlink">
  <defs>
    <polygon id="path-1" points="0.108627692 0.00701538462 11.1290585 0.00701538462 11.1290585 9.76608 0.108627692 9.76608"></polygon>
  </defs>
  <g id="landing-page" stroke="none" stroke-width="1" fill="none" fill-rule="evenodd">
    <g transform="translate(-42.000000, -38.000000)" id="01">
      <g transform="translate(42.000000, 25.000000)">
        <g id="headline">
          <g id="menu-/-menu">
              <g id="menu-/-logo" transform="translate(0.000000, 5.000000)">
                  <g id="Group-16" transform="translate(0.000000, 8.000000)">
                      <g id="Group-15" transform="translate(84.923077, 0.362215)">
                          <g id="Group-6" transform="translate(0.369231, 0.000000)"></g>
                          <g id="Group-9" transform="translate(0.000000, 11.446154)"></g>
                          <g id="Group-14" transform="translate(14.400000, 0.000000)">
                              <mask id="mask-2" fill="white">
                                  <use xlink:href="#path-1"></use>
                              </mask>
                              <g id="Clip-13"></g>
                          </g>
                      </g>
                      <path d="M70.1703877,0.369267692 C74.3471262,0.369267692 77.7451569,3.76729846 77.7451569,7.94403692 C77.7451569,11.7582873 74.9114735,14.9225804 71.2385394,15.4435538 L71.1115569,15.4604677 L78.6874338,23.3302523 L78.6874338,0.369267692 L85.0023877,0.369267692 L85.0023877,23.9771446 L72.1871262,23.9775138 L63.3303877,15.1429292 L63.3303877,10.4632985 L69.6841108,10.4632985 C70.9919262,10.4632985 72.05568,9.39917538 72.05568,8.09136 C72.05568,6.81233659 71.0376736,5.76652533 69.7690486,5.72165973 L69.6841108,5.72016 L56.3840492,5.72016 L56.3840492,23.9775138 L50.0694646,23.9775138 L50.0694646,5.72016 L42.8687262,5.72016 L42.8687262,0.369267692 L70.1703877,0.369267692 Z M5.12411077,0.369230769 L15.4935877,13.0338462 L15.4935877,0.369230769 L21.7442954,0.369230769 L21.7442954,22.5552 L31.6330338,0.369230769 L38.4907569,0.369230769 L49.0463262,23.9774769 L41.8596185,23.9774769 L35.02848,7.47913846 L28.1670646,23.9774769 L16.6537108,23.9774769 L6.25137231,11.3095385 L6.25063385,23.9774769 L-7.38461538e-05,23.9774769 L0.000664615385,0.369230769 L5.12411077,0.369230769 Z" id="Shape" fill="#272630"></path>
                      <polygon id="Fill-4" fill="#44D894" points="94.1011938 12.0937846 85.3098092 0.369230769 93.0016246 0.369230769 101.661194 11.9176615"></polygon>
                      <path d="M94.1011938,12.0937846 L85.3098092,0.369230769 L93.0016246,0.369230769 L101.661194,11.9176615 L94.1011938,12.0937846 Z M85.0023877,23.9930215 L94.1013415,12.0938215 L101.660972,11.9176985 L92.4741415,23.9930215 L85.0023877,23.9930215 Z" id="Combined-Shape" fill="#00AF68"></path>
                      <polygon id="Fill-4-Copy-2" fill="#44D894" points="94.1013415 12.0937846 85.3099569 0.369230769 93.0017723 0.369230769 101.661342 11.9176615"></polygon>
                      <polygon id="Fill-10" fill="#272630" points="101.661046 11.9176615 97.9092923 16.8491077 103.023508 23.9929846 110.804677 23.9929846"></polygon>
                      <polygon id="Fill-12" fill="#272630" points="103.012874 10.1282954 110.452135 0.369156923 103.155028 0.369156923 99.4317046 5.35192615"></polygon>
                  </g>
              </g>
          </g>
        </g>
      </g>
    </g>
  </g>
</svg>